<?xml version="1.0"?>
<svg xmlns="http://www.w3.org/2000/svg" xmlns:xlink="http://www.w3.org/1999/xlink" version="1.1" id="Capa_1" x="0px" y="0px" viewBox="0 0 511.999 511.999" style="enable-background:new 0 0 511.999 511.999;" xml:space="preserve" width="512px" height="512px" class=""><g><g>
	<g>
		<polygon points="255.363,223.867 177.931,305.283 218.47,305.356 218.47,479.916 292.636,479.916 292.636,305.356     333.767,305.282   " data-original="#000000" class="active-path" data-old_color="#000000" fill="#00335E"/>
	</g>
</g><g>
	<g>
		<path d="M384.4,137.492c-6.543-27.373-21.432-52.235-42.789-71.076c-25.098-22.141-57.372-34.334-90.877-34.334    c-75.77,0-137.414,61.649-137.414,137.425c0,1.175,0.015,2.352,0.045,3.529c-1.162-0.037-2.325-0.056-3.486-0.056    C49.291,172.981,0,222.272,0,282.86c0,60.588,49.291,109.879,109.879,109.879h78.591v-57.438l-80.354-0.145l147.112-154.679    l148.958,154.679l-81.551,0.145v57.437h61.746c70.369,0,127.618-57.254,127.618-127.629    C512,194.746,454.763,137.499,384.4,137.492z" data-original="#000000" class="active-path" data-old_color="#000000" fill="#00335E"/>
	</g>
</g></g> </svg>
